<svg width="432" height="587" viewBox="0 0 432 587" fill="none" xmlns="http://www.w3.org/2000/svg">
<path d="M70.3622 306.397L65.9673 549.217C65.9311 551.216 67.4744 552.889 69.4693 553.013L79.8475 553.662C82.0046 553.797 83.8257 552.078 83.8161 549.917L82.7216 304.004C82.7163 302.822 83.2704 301.708 84.2158 300.999L91.3314 295.662C91.5462 295.501 91.8357 295.47 92.0821 295.577C124.966 309.833 145.18 315.99 178.387 324.127C179.249 324.338 179.688 323.15 178.893 322.754C149.438 308.074 129.944 299.513 93.7442 286.135C93.6168 286.088 93.5018 286.006 93.417 285.9L87.5696 278.591L82.8422 273.864C82.7575 273.779 82.6936 273.673 82.6574 273.558C70.7393 235.883 62.7846 214.744 46.2431 182.679C45.8479 181.913 44.7001 182.317 44.8704 183.162C51.9199 218.147 57.9234 239.321 70.2919 275.701C70.3513 275.876 70.3452 276.07 70.2725 276.239L69.8038 277.333C69.4557 278.145 68.8288 278.803 68.0829 279.277C66.8266 280.074 64.8595 281.53 63.6612 283.447C62.0866 285.967 61.0429 290.345 60.7541 291.657C60.7014 291.896 60.5335 292.1 60.3086 292.197C27.1285 306.589 11.2997 317.72 -10.2456 339.703C-10.8338 340.303 -10.1352 341.251 -9.38547 340.872C19.6918 326.157 36.4264 316.773 63.3175 299.36C63.5295 299.223 63.8004 299.199 64.0312 299.302L66.1351 300.237C66.7176 300.496 67.2241 300.899 67.6065 301.409L69.6157 304.088C70.1146 304.753 70.3773 305.566 70.3622 306.397Z" fill="white"/>
<path d="M76.7223 305.091L74.8736 552.815C74.8706 553.218 75.1872 553.551 75.5896 553.568L83.0521 553.879C83.4779 553.896 83.8322 553.555 83.8303 553.129L82.7147 302.863C82.7137 302.633 82.8182 302.416 82.9981 302.274L91.3061 295.697C91.5335 295.517 91.8445 295.484 92.1039 295.614L93.173 296.149C126.294 310.409 137.507 315.008 178.369 324.174C179.24 324.37 179.68 323.133 178.873 322.748C150.865 309.391 143.591 303.203 107.742 291.292C102.014 288.926 93.8455 286.66 93.5466 286.062C93.3168 285.603 90.9373 282.463 89.2271 280.584C88.4642 279.746 87.3067 279.512 86.2131 279.81L84.7909 280.198C84.1637 280.369 83.592 280.701 83.1323 281.16L82.1846 282.108C82.0391 282.254 81.8818 282.387 81.7144 282.506L79.351 284.194L73.0003 289.051L66.0488 293.222C65.7045 293.428 65.3957 293.689 65.1344 293.994L64.9018 294.265C63.9236 295.407 63.6671 297.066 64.5553 298.278C64.9177 298.773 65.2734 299.137 65.529 299.137H68.2851C68.6867 299.137 69.0853 299.202 69.4662 299.329L72.7668 300.429C73.1686 300.563 73.5447 300.764 73.879 301.024L75.2802 302.114C76.1979 302.828 76.7309 303.928 76.7223 305.091Z" fill="#C4C4C4"/>
<path d="M362.879 288.637L358.838 553.481C358.807 555.566 360.488 557.273 362.574 557.273H373.671C375.754 557.273 377.435 555.569 377.406 553.485L373.73 290.632C373.725 290.326 373.759 290.021 373.829 289.724L374.932 285.036C375.117 284.247 375.554 283.541 376.176 283.022L376.917 282.404C377.275 282.106 377.686 281.878 378.128 281.73L383.062 280.085L394.643 277.844C402.955 301.798 419.513 327.861 427.494 339.702C428.219 340.778 429.7 339.997 429.241 338.783C424.099 325.187 412.557 295.768 401.367 274.855L405.916 270.957C406.364 270.573 406.714 270.088 406.939 269.543L408.658 265.369C409.014 264.503 409.033 263.534 408.709 262.655L407.308 258.854C406.866 257.653 405.838 256.761 404.586 256.493L401.367 255.803C410.274 234.198 418.546 199.846 422.194 183.691C422.486 182.401 420.815 181.828 420.258 183.028C413.382 197.851 399.055 229.656 390.907 254.309L383.062 255.803L366.252 256.924C346.485 251.371 316.762 251.875 303.534 252.445C302.267 252.499 302.126 254.138 303.36 254.43C315.572 257.322 342.244 263.163 361.769 264.022L357.66 267.384L350.352 272.367C349.758 272.772 349.293 273.34 349.014 274.003L347.687 277.154C346.976 278.843 347.595 280.8 349.15 281.771L351.723 283.379C352.188 283.67 352.712 283.855 353.258 283.92L359.514 284.671C360.899 284.837 362.077 285.762 362.567 287.068L362.642 287.268C362.806 287.706 362.886 288.17 362.879 288.637Z" fill="white"/>
<path d="M370.768 285.038L374.076 555.612C374.088 556.533 374.837 557.273 375.758 557.273C376.694 557.273 377.45 556.509 377.44 555.573L374.49 287.51C374.478 286.36 374.995 285.269 375.892 284.551L376.338 284.195L380.43 281.047C380.932 280.661 381.523 280.409 382.148 280.314L390.848 278.996C392.444 278.754 394.014 279.565 394.742 281.006L412.201 315.574L427.084 338.658C427.563 339.402 428.718 338.83 428.429 337.994C419.476 312.057 416.677 301.714 402.397 276.746C401.989 276.032 401.919 275.157 402.225 274.393C402.397 273.961 402.679 273.582 403.041 273.292L404.681 271.98C405.646 271.208 406.167 270.009 406.072 268.777L405.753 264.627C405.616 262.845 403.789 261.708 402.13 262.372C401.872 262.475 401.632 262.618 401.419 262.796L397.987 265.656C397.509 266.055 396.938 266.327 396.328 266.449L390.149 267.685C389.908 267.733 389.663 267.758 389.417 267.758H387.986C386.571 267.758 385.278 266.958 384.645 265.692L383.906 264.214C383.375 263.154 382.373 262.408 381.205 262.204L374.774 261.086C374.572 261.051 374.373 260.999 374.18 260.932L367.295 258.522C367.098 258.453 366.895 258.401 366.69 258.366L351.683 255.803L333.751 253.562L303.866 253.188C302.772 253.243 302.656 254.814 303.73 255.029L311.337 256.55L335.993 261.033L378.313 266.097C379.168 266.2 379.899 266.761 380.219 267.56C380.74 268.862 380.014 270.327 378.664 270.702L374.47 271.867L364.758 274.108L353.251 277.84C351.871 278.288 350.935 279.574 350.935 281.026V281.465C350.935 282.243 351.302 282.975 351.924 283.441C352.256 283.69 352.645 283.852 353.056 283.911L359.877 284.886C360.876 285.029 361.769 284.254 361.769 283.245C361.769 282.674 362.063 282.143 362.548 281.84L363.403 281.306C364.263 280.768 365.314 280.633 366.282 280.935L368.147 281.518C369.69 282 370.748 283.421 370.768 285.038Z" fill="#C4C4C4"/>
<path d="M183.91 148.695L176.849 585.358C176.836 586.193 177.509 586.876 178.344 586.876H208.921C209.758 586.876 210.432 586.189 210.415 585.352L201.495 146.026C201.486 145.578 201.678 145.15 202.019 144.859L212.67 135.774C213.427 135.129 214.6 135.409 215.011 136.315C243.27 198.597 261.304 230.291 291.979 274.711C292.959 276.129 295.107 275.037 294.542 273.408C275.754 219.158 259.412 189.099 225.295 127.889C225.117 127.57 225.058 127.193 225.134 126.837C225.65 124.444 227.678 114.905 228.004 111.323C228.301 108.054 227.652 102.419 227.375 100.253C227.305 99.7062 227.542 99.1606 227.986 98.8337C266.239 70.6792 285.9 47.3968 308.037 5.55573C308.773 4.16585 307.139 2.76205 305.872 3.69399C269.033 30.8022 249.699 50.4366 219.922 87.8932C219.607 88.2893 219.111 88.5072 218.606 88.4674C216.501 88.3016 210.767 87.934 207.458 88.5358C203.905 89.1816 193.654 94.8521 190.939 96.3777C190.517 96.6151 190.003 96.6287 189.564 96.4247C113.971 61.3236 66.8706 46.9489 -14.7431 27.281C-16.5237 26.8519 -17.3368 29.3531 -15.6484 30.0631C58.1649 61.0999 104.78 78.8905 183.861 103.987C184.813 104.29 185.227 105.43 184.665 106.258L178.693 115.059C172.815 126.342 174.21 139.341 176.825 141.956C178.853 143.985 182.006 146.463 183.318 147.472C183.697 147.764 183.918 148.217 183.91 148.695Z" fill="white"/>
<path d="M201.139 107.666L216.597 96.4244C216.976 96.1487 217.3 95.8042 217.551 95.4088L218.092 94.5595C219.07 93.0225 221.014 92.4152 222.693 93.1222L224.806 94.0121C226.084 94.5499 226.958 95.7507 227.078 97.1314L227.63 103.479L227.967 109.873C227.991 110.341 227.972 110.81 227.909 111.275L226.883 118.795L225.79 123.606C225.416 125.25 223.511 126.011 222.108 125.075C221.184 124.459 219.957 124.556 219.141 125.309L216.617 127.639C216.007 128.202 215.602 128.952 215.466 129.77L215.039 132.331C214.966 132.767 214.817 133.187 214.597 133.571L213.801 134.964C213.559 135.388 213.236 135.76 212.851 136.059L210.073 138.22L205.11 142.191C204.688 142.528 204.344 142.954 204.102 143.437L202.638 146.364C202.369 146.904 202.233 147.501 202.245 148.105L210.432 586.115C210.44 586.533 210.103 586.876 209.685 586.876H194.756C194.344 586.876 194.009 586.563 194.009 586.151C194.015 444.318 195.877 158.99 195.877 158.393C195.877 157.851 194.853 148.87 194.198 143.209C194.078 142.172 193.529 141.233 192.685 140.619L186.028 135.778C185.87 135.663 185.721 135.536 185.583 135.398L183.826 133.641C182.416 132.231 182.362 129.962 183.704 128.487L188.779 122.904L200.42 108.354C200.628 108.093 200.87 107.862 201.139 107.666Z" fill="#C4C4C4"/>
</svg>
