<svg width="62" height="65" viewBox="0 0 62 65" fill="none" xmlns="http://www.w3.org/2000/svg">
<g clip-path="url(#clip0_54_145)">
<path d="M0 46.8631C11.4071 31.167 22.6626 15.5835 33.956 0C38.5795 1.27672 43.0892 2.55344 47.6748 3.83016C48.2812 8.48642 48.8875 13.1427 49.4939 17.7614C49.6076 17.7614 49.7592 17.799 49.8729 17.799C50.3655 16.1092 50.8203 14.4194 51.3888 12.5419C53.4731 13.2553 55.4438 13.8937 57.4523 14.5696C58.9682 20.1271 60.4841 25.5719 62.0379 31.2045C60.0293 30.7164 58.324 29.74 56.467 28.989C56.2017 27.825 55.9364 26.6984 55.6333 25.3842C54.7237 26.4731 54.9132 27.6748 54.61 28.7637C54.3068 29.9653 54.1174 31.2045 53.8521 32.4061C53.6247 33.5702 53.3594 34.6967 53.132 35.8608C52.9046 37.0248 52.6773 38.1514 52.4499 39.5032C48.2433 37.4003 44.1883 35.3351 40.0954 33.3073C39.9059 30.3033 39.6785 27.3368 39.489 24.4079C37.1773 28.8013 35.3961 33.3449 33.5012 37.851C31.6064 42.3195 29.7494 46.788 27.8545 51.2941C25.9597 55.8377 24.1027 60.3437 22.132 65.0376C14.7042 58.9168 7.38998 52.9463 0 46.8631Z" fill="white"/>
</g>
<defs>
<clipPath id="clip0_54_145">
<rect width="62" height="65" fill="white"/>
</clipPath>
</defs>
</svg>
