<svg width="117" height="39" viewBox="0 0 117 39" fill="none" xmlns="http://www.w3.org/2000/svg">
<path d="M43.056 0.0494385C43.056 13.0989 43.056 26 43.056 39C38.9672 39 34.9276 39 30.8387 39C30.8387 32.5247 30.8387 26.0989 30.8387 19.4753C20.4935 26 10.3453 32.4259 0.0492632 38.9506C0.0492632 38.7034 0 38.5057 0 38.308C0 34.7985 0 31.3384 0 27.8289C0 27.4335 0.0985263 27.1863 0.443368 26.9886C14.4834 18.1407 28.4741 9.24335 42.4648 0.395446C42.6126 0.296587 42.8097 0.197727 43.056 0.0494385Z" fill="white"/>
<path d="M116.901 0.0494297C109.709 6.52471 102.615 13 95.4719 19.4753C102.615 25.9506 109.758 32.4259 117 39C116.606 39 116.458 39 116.261 39C111.926 39 107.591 39 103.255 39C102.812 39 102.517 38.8517 102.221 38.6046C97.738 34.5513 93.2551 30.4981 88.7721 26.3954C88.6243 26.2471 88.4765 26.1483 88.2795 25.9506C83.5502 30.2509 78.821 34.5513 73.9932 38.9011C73.9932 38.654 73.9439 38.4563 73.9439 38.308C73.9439 34.3536 73.9439 30.3992 73.9439 26.4943C73.9439 26.1977 74.0917 25.8517 74.338 25.654C83.6487 17.2015 93.0087 8.74905 102.319 0.296578C102.467 0.148289 102.714 0 102.96 0C107.541 0 112.074 0 116.655 0C116.704 0 116.754 0 116.901 0.0494297Z" fill="white"/>
<path d="M67.7861 25.9011C67.7861 25.1103 67.7861 24.4183 67.7861 23.6768C61.6282 23.6768 55.5196 23.6768 49.3617 23.6768C49.3617 20.8593 49.3617 18.1407 49.3617 15.3232C55.4703 15.3232 61.6282 15.3232 67.7861 15.3232C67.7861 10.1825 67.7861 5.14069 67.7861 0.0494385C71.875 0.0494385 75.9638 0.0494385 80.0526 0.0494385C80.0526 0.247157 80.0526 0.444876 80.0526 0.593165C80.0526 5.19012 80.0526 9.73765 80.0526 14.3346C80.0526 14.5818 79.9541 14.9278 79.7571 15.1255C75.8653 18.6844 71.9735 22.1939 68.0817 25.7034C67.9832 25.7529 67.9339 25.8023 67.7861 25.9011Z" fill="white"/>
<path d="M0.0491943 23.0342C0.0491943 15.3232 0.0491943 7.71103 0.0491943 0.0494385C4.13804 0.0494385 8.17762 0.0494385 12.3157 0.0494385C12.3157 0.247157 12.3157 0.494305 12.3157 0.692024C12.3157 5.38784 12.3157 10.0837 12.3157 14.7795C12.3157 15.1255 12.3157 15.3726 11.9709 15.5703C8.12835 17.9924 4.23656 20.4639 0.394036 22.8859C0.29551 22.8859 0.196984 22.9354 0.0491943 23.0342Z" fill="white"/>
</svg>
