<svg width="145" height="38" viewBox="0 0 145 38" fill="none" xmlns="http://www.w3.org/2000/svg">
<path d="M78.915 4.33459C80.4918 4.33459 81.4953 4.33459 82.7138 4.33459C82.7138 15.4601 82.7138 26.3688 82.7138 37.5665C81.4953 37.5665 80.4202 37.5665 79.0583 37.5665C79.0583 32.5095 79.0583 27.5247 79.0583 22.3232C75.8329 22.3232 72.8225 22.3232 69.4538 22.3232C69.4538 27.3802 69.4538 32.4373 69.4538 37.6388C68.0203 37.6388 67.0168 37.6388 65.7266 37.6388C65.7266 26.5855 65.7266 15.6046 65.7266 4.40684C66.7301 4.40684 67.8052 4.40684 69.3104 4.40684C69.3104 8.81368 69.3104 13.2205 69.3104 17.8441C72.6792 17.8441 75.6179 17.8441 78.915 17.8441C78.915 13.365 78.915 8.95817 78.915 4.33459Z" fill="white"/>
<path d="M53.2551 19.7224C56.3371 25.7186 59.2758 31.5704 62.4296 37.711C60.6377 37.711 59.3475 37.711 57.8423 37.711C55.4053 32.5095 52.8967 27.3802 50.4597 22.1787C50.173 22.251 49.8863 22.3232 49.6713 22.3954C49.6713 27.3802 49.6713 32.4373 49.6713 37.6388C48.2378 37.6388 47.2343 37.6388 45.9442 37.6388C45.9442 26.5856 45.9442 15.5323 45.9442 4.40685C46.5892 4.33461 47.091 4.19012 47.5927 4.19012C48.0944 4.19012 48.6678 4.26237 49.4563 4.33461C49.4563 8.59697 49.4563 12.8593 49.4563 17.1217C49.6713 17.1939 49.8863 17.2662 50.173 17.3384C53.1834 13.365 54.9036 8.59697 57.7706 4.33461C58.9175 4.33461 60.1359 4.33461 61.8562 4.33461C58.9891 9.53613 56.1938 14.5209 53.2551 19.7224Z" fill="white"/>
<path d="M87.086 37.711C90.5264 26.4411 93.8952 15.3878 97.4073 3.90115C100.919 15.3156 104.288 26.2966 107.8 37.6388C106.438 37.711 105.363 37.7833 104.145 37.8555C103.285 35.1103 102.425 32.5095 101.564 29.8365C98.7691 29.8365 96.2605 29.8365 93.3935 29.8365C92.5334 32.4373 91.7449 35.038 90.8131 37.711C89.6663 37.711 88.6629 37.711 87.086 37.711ZM94.3969 25.6464C96.6905 25.6464 98.4824 25.6464 100.633 25.6464C99.6292 22.1787 98.7691 19.0723 97.909 15.9658C97.6223 15.9658 97.4073 15.9658 97.1206 15.9658C96.1888 19.0723 95.3287 22.1787 94.3969 25.6464Z" fill="white"/>
<path d="M141.345 4.33459C142.635 4.33459 143.638 4.33459 145 4.33459C141.775 15.6046 138.621 26.5855 135.467 37.6388C134.177 37.6388 133.173 37.6388 131.812 37.6388C132.457 35.327 132.958 33.1597 133.675 31.0646C134.32 29.1863 134.249 27.5247 133.604 25.6464C131.453 19.5779 129.518 13.5095 127.511 7.36882C127.224 6.42965 127.009 5.56273 126.651 4.33459C127.941 4.33459 128.945 4.33459 130.378 4.33459C132.17 9.60836 133.962 15.0266 135.825 20.4449C136.112 20.4449 136.327 20.4449 136.614 20.5171C138.191 15.1711 139.768 9.82509 141.345 4.33459Z" fill="white"/>
<path d="M122.422 8.16351C120.272 8.16351 118.265 8.16351 115.9 8.16351C115.613 17.9886 115.9 27.6692 115.685 37.6388C114.538 37.6388 113.534 37.6388 112.316 37.6388C112.316 26.5133 112.316 15.6046 112.316 4.4791C115.685 4.4791 118.91 4.4791 122.422 4.4791C122.422 5.4905 122.422 6.6464 122.422 8.16351Z" fill="white"/>
<path d="M8.60107 3.97338C8.60107 2.45627 8.60107 1.37262 8.60107 0C17.7756 1.58935 26.735 3.17871 35.9095 4.8403C35.9095 6.14068 35.9095 7.44106 35.9095 9.03042C26.8784 7.36882 17.8472 5.70722 8.60107 3.97338Z" fill="white"/>
<path d="M11.8265 11.7034C11.8265 10.2585 11.8265 9.03041 11.8265 7.29657C20.4992 8.95817 29.0287 10.5475 37.4147 12.1369C37.4147 13.8707 37.4147 15.1711 37.4147 16.5437C28.8853 14.8821 20.4992 13.2928 11.8265 11.7034Z" fill="white"/>
<path d="M16.127 19.2167C16.127 17.6274 16.127 16.327 16.127 14.6654C23.5813 16.2548 30.9639 17.7719 38.5615 19.3612C38.5615 20.8061 38.5615 22.1065 38.5615 23.6236C31.0356 22.1787 23.7246 20.7338 16.127 19.2167Z" fill="white"/>
<path d="M5.16063 33.1597C11.1814 32.1483 17.2738 31.1369 23.5096 30.0532C23.5096 31.5703 23.5096 33.0152 23.5096 34.8213C19.9258 35.327 16.127 35.8327 12.3282 36.3384C8.67274 36.8441 4.9456 37.422 1.14679 38C1.14679 36.5551 1.14679 35.4715 1.14679 34.3878C2.50863 33.8821 3.87047 33.4487 5.16063 32.943C5.16063 33.0152 5.16063 33.0874 5.16063 33.1597Z" fill="white"/>
<path d="M19.2091 22.3954C19.2091 23.9848 19.2091 25.3574 19.2091 27.019C12.9733 28.5361 6.80919 30.1255 0.430054 31.6426C0.430054 30.4867 0.430054 29.3308 0.430054 28.2472C0.931784 27.8137 1.50519 27.3802 2.00692 26.8745C2.00692 26.9468 2.0786 27.0913 2.0786 27.1635C7.74098 25.6464 13.3317 24.057 19.2091 22.3954Z" fill="white"/>
<path d="M21.001 27.019C21.001 25.3574 21.001 23.9848 21.001 22.2509C26.8784 23.6236 32.4691 24.9962 38.2032 26.3688C38.2032 27.8137 38.2032 29.1141 38.2032 30.5589C32.3974 29.3308 26.735 28.1749 21.001 27.019Z" fill="white"/>
<path d="M0 26.0799C0 24.8517 0 23.7681 0 22.3232C4.65892 19.9392 9.38952 17.5551 14.4785 14.9544C14.4785 16.616 14.4785 17.9164 14.4785 19.4335C9.81958 21.6008 5.08898 23.7681 0 26.0799Z" fill="white"/>
<path d="M25.3015 29.981C29.4587 31.0646 33.4725 32.076 37.5581 33.1597C37.5581 34.6768 37.5581 35.9049 37.5581 37.3498C36.698 37.4943 35.9095 37.5665 35.1928 37.711C35.2644 37.5665 35.2644 37.3498 35.3361 37.2053C32.2541 35.616 28.5986 36.0494 25.3015 34.6768C25.3015 33.2319 25.3015 31.7871 25.3015 29.981Z" fill="white"/>
<path d="M9.89127 7.80228C9.89127 9.60836 9.89127 10.7643 9.89127 11.9924C6.88089 14.6654 3.94218 17.3384 1.00348 19.9392C1.00348 18.9278 1.00348 17.6996 1.00348 16.2547C3.79883 13.654 6.59419 10.981 9.89127 7.80228Z" fill="white"/>
<path d="M6.88089 1.73383C7.88435 5.92394 4.44391 8.23573 2.86705 11.3422C2.79537 7.65778 5.51905 4.98478 6.88089 1.73383Z" fill="white"/>
</svg>
