<svg width="75" height="75" viewBox="0 0 75 75" fill="none" xmlns="http://www.w3.org/2000/svg">
<g clip-path="url(#clip0_54_83)">
<path d="M33.7834 19.4151C32.8851 19.4151 32.0221 19.4151 31.1237 19.4151C31.1061 19.1508 31.0885 18.957 31.0885 18.7632C31.0885 15.222 31.0885 11.6808 31.0709 8.13953C31.0709 7.68146 31.1942 7.50528 31.6698 7.41719C39.5784 5.93728 46.9763 7.24101 53.7752 11.5222C61.2435 16.2262 66.0345 22.9739 67.6198 31.6596C69.6806 42.8823 66.3692 52.4841 58.0378 60.2889C57.0514 61.2227 55.9241 61.9979 54.8497 62.8259C54.6383 62.9845 54.4093 63.1078 54.1099 63.3016C52.3837 57.1529 50.6752 51.0923 48.9842 45.0317C48.9138 44.9789 48.8433 44.9436 48.7905 44.8908C48.2445 45.4898 47.716 46.124 47.1524 46.7054C44.1933 49.8062 41.2341 52.8894 38.2574 55.9725C37.9403 56.3073 37.817 56.6244 37.8346 57.0825C37.8523 60.5532 37.8346 64.024 37.8523 67.4947C37.8523 68.1114 37.6761 68.1994 37.0949 68.1818C34.03 68.0761 31.0005 67.6885 28.1118 66.649C16.6451 62.5969 9.5291 54.6335 7.39782 42.6885C5.54836 32.3291 8.64841 23.291 16.011 15.7505C18.3184 13.3897 21.0134 11.5574 23.9373 10.0247C24.0782 9.95419 24.2191 9.91895 24.4657 9.81324C24.4657 10.9056 24.3776 11.9274 24.4833 12.9316C24.6594 14.4292 24.1663 15.3101 22.8628 16.2086C16.9622 20.2607 13.3161 25.8809 12.0127 32.9457C10.9911 38.4778 11.7308 43.8161 14.2144 48.8548C17.244 55.0211 22.0174 59.3552 28.4288 61.8041C29.9612 62.3855 31.5817 62.7026 33.167 63.1254C33.3431 63.1783 33.5545 63.1607 33.8011 63.1607C33.8011 55.7435 33.8011 48.3791 33.8011 40.9267C32.6562 40.9267 31.5289 40.9267 30.3487 40.9267C30.3487 38.0197 30.3487 35.2008 30.3487 32.2939C31.476 32.2939 32.6033 32.2939 33.8011 32.2939C33.7834 27.9951 33.7834 23.7667 33.7834 19.4151ZM35.2982 15.2572C35.6329 15.2572 35.8971 15.2572 36.1437 15.2572C38.9619 15.2572 41.7625 15.2748 44.5808 15.2396C45.162 15.2396 45.4086 15.3982 45.5672 15.9619C46.9939 21.2121 48.4734 26.4447 49.9178 31.6772C50.0411 32.1529 50.2524 32.2939 50.728 32.2763C51.9258 32.241 53.1235 32.2586 54.3565 32.2586C54.3565 35.1656 54.3565 37.9845 54.3565 40.8915C53.7576 40.8915 53.1764 40.8915 52.507 40.8915C53.8457 45.6836 55.1667 50.3876 56.5054 55.1621C63.8856 47.3221 65.8936 35.1656 60.2748 24.9824C54.5679 14.6406 43.4711 10.6413 35.2982 11.7336C35.2982 12.8788 35.2982 14.024 35.2982 15.2572ZM37.8346 40.9796C37.8346 43.9394 37.8346 46.864 37.8346 49.771C38.4511 49.9471 38.8562 49.771 39.279 49.3305C41.2341 47.2516 43.2245 45.2079 45.2149 43.1466C45.8666 42.4595 46.5359 41.7724 47.2933 40.9619C44.0171 40.9796 40.9523 40.9796 37.8346 40.9796ZM37.8523 19.4327C37.8523 22.6039 37.8523 25.6695 37.8523 28.8584C39.5608 27.0789 41.1813 25.4052 42.7665 23.7139C42.8722 23.5906 42.8722 23.3087 42.8194 23.1149C42.5376 22.0049 42.2205 20.9126 41.8858 19.8203C41.833 19.6617 41.6569 19.4503 41.5512 19.4503C40.3182 19.4151 39.1028 19.4327 37.8523 19.4327ZM44.158 27.8894C42.7313 29.3869 41.4103 30.7611 40.0012 32.2234C41.8682 32.2234 43.5944 32.2234 45.3734 32.2234C44.9683 30.7787 44.5808 29.4045 44.158 27.8894Z" fill="white"/>
<path d="M7.04556 54.0698C7.52113 54.9331 6.53475 55.3383 6.56998 56.0254C6.99271 56.0254 7.43306 56.0078 7.8558 56.043C8.01432 56.0606 8.17285 56.2016 8.33137 56.272C8.2433 56.3954 8.19046 56.5715 8.06716 56.6596C7.52113 57.012 6.93987 57.3291 6.37623 57.6815C6.04156 57.8929 5.86542 57.8224 5.77735 57.3996C6.18247 57.1529 6.58759 56.9063 7.16885 56.5363C6.58759 56.5011 6.20009 56.4835 5.68929 56.4658C5.90065 56.0254 6.05918 55.6554 6.30577 55.1093C5.8302 55.3911 5.51315 55.6026 5.16087 55.7611C5.03757 55.814 4.86143 55.7611 4.72052 55.7435C4.77336 55.6026 4.80859 55.4088 4.89666 55.3559C5.60122 54.9155 6.28816 54.5279 7.04556 54.0698Z" fill="white"/>
<path d="M29.2214 71.1593C29.2919 71.3179 29.4328 71.494 29.3976 71.635C29.2038 72.4278 28.9749 73.203 28.7459 74.0839C27.9709 73.5906 28.1118 72.6921 27.601 72.0754C27.4777 72.4806 27.3896 72.8682 27.2487 73.2382C27.1959 73.3615 27.0373 73.432 26.914 73.5201C26.8612 73.3791 26.7555 73.2206 26.7907 73.0973C26.9845 72.3397 27.1959 71.5821 27.4424 70.7188C28.2703 71.1769 28.0765 72.093 28.5873 72.7097C28.7283 72.1988 28.8692 71.7231 29.0101 71.2298C29.0981 71.1945 29.1686 71.1769 29.2214 71.1593Z" fill="white"/>
<path d="M64.9777 12.8435C64.9953 13.513 64.5549 13.9887 63.9208 14.0063C63.2867 14.024 62.7407 13.4778 62.7407 12.8435C62.7583 12.2445 63.3044 11.7336 63.9032 11.7336C64.5021 11.7512 64.9777 12.2269 64.9777 12.8435Z" fill="white"/>
<path d="M11.2553 14.0064C10.6212 14.0064 10.128 13.5307 10.1104 12.8964C10.0928 12.2622 10.5683 11.7512 11.2024 11.7336C11.8365 11.716 12.3297 12.1917 12.3297 12.8436C12.3473 13.4954 11.8718 14.0064 11.2553 14.0064Z" fill="white"/>
<path d="M70.5261 52.6427C69.2227 51.9027 69.2227 51.9028 69.2931 51.4799C70.1033 51.8675 70.8784 52.2199 71.6534 52.6075C71.7238 52.6427 71.7943 52.8013 71.7767 52.8541C71.7238 52.9598 71.6005 53.0655 71.4948 53.0832C70.9136 53.2065 70.3323 53.2946 69.6102 53.4355C70.1738 53.7174 70.6318 53.9464 71.0897 54.1579C71.1073 54.2107 71.125 54.2812 71.1426 54.334C70.984 54.3869 70.7727 54.5455 70.6494 54.4926C69.892 54.1579 69.1522 53.7879 68.3243 53.3827C68.9761 52.7308 69.8391 52.9951 70.5261 52.6427Z" fill="white"/>
<path d="M34.3471 73.1677C34.3471 74.1543 33.8715 74.8062 33.1317 74.8238C32.392 74.8238 31.8988 74.2953 31.9164 73.5025C31.9164 72.5159 32.4096 71.8816 33.167 71.8992C33.8891 71.9168 34.3471 72.3925 34.3471 73.1677ZM33.7658 73.2734C33.8187 73.2382 33.8539 73.1853 33.9068 73.1501C33.6778 72.8858 33.4488 72.6392 33.2198 72.3749C32.9908 72.6216 32.709 72.8506 32.5505 73.1325C32.4448 73.2911 32.4448 73.5906 32.5329 73.7667C32.6386 73.9958 32.8675 74.2953 33.0437 74.3129C33.2374 74.3305 33.5016 74.0663 33.6602 73.8548C33.7658 73.7139 33.7306 73.4672 33.7658 73.2734Z" fill="white"/>
<path d="M1.4091 38.6188C0.493172 38.5835 -0.0176307 38.1607 -1.68437e-05 37.4207C0.0175971 36.6279 0.598856 36.2051 1.56762 36.2403C2.41309 36.2756 2.99435 36.7865 2.9415 37.4912C2.90628 38.2312 2.34263 38.654 1.4091 38.6188ZM1.49716 36.8217C0.827836 36.8217 0.510786 37.0331 0.493172 37.4031C0.475558 37.8083 0.898292 38.0902 1.51478 38.0726C1.93751 38.055 2.4307 38.0021 2.44831 37.4736C2.44831 36.8217 1.88467 36.857 1.49716 36.8217Z" fill="white"/>
<path d="M43.5944 73.4672C43.5944 74.3305 43.2069 74.7534 42.3967 74.7534C41.6569 74.7534 41.1989 74.1367 41.1989 73.1149C41.1989 72.3044 41.6216 71.864 42.379 71.864C43.1541 71.8464 43.5768 72.4101 43.5944 73.4672ZM43.066 73.7491C43.066 72.8506 42.7665 72.3221 42.3614 72.3397C41.8682 72.3397 41.7449 72.6744 41.7449 73.0973C41.7273 73.7667 42.0268 74.3305 42.4319 74.2424C42.7137 74.172 42.9427 73.8548 43.066 73.7491Z" fill="white"/>
<path d="M73.7846 35.1128C74.1545 34.8837 74.4892 34.6547 74.8415 34.4257C75.0881 34.8661 74.8591 35.0599 74.5597 35.2361C74.3131 35.3947 74.0841 35.5884 73.8551 35.7646C73.8727 35.8351 73.8903 35.9056 73.9079 35.9584C74.1545 35.9584 74.4011 35.9232 74.6301 35.976C74.7534 35.9937 74.8591 36.1522 74.9824 36.2403C74.8767 36.3108 74.771 36.4517 74.6653 36.4693C73.8903 36.5398 73.0977 36.5751 72.2875 36.6279C72.1289 35.9937 71.9176 35.377 72.4284 34.919C72.8687 34.5314 73.3795 34.7428 73.7846 35.1128ZM73.3619 36.0994C73.4324 35.9937 73.4852 35.8703 73.5557 35.7646C73.3619 35.6061 73.1682 35.4475 72.9744 35.2889C72.8511 35.4651 72.7278 35.6413 72.6221 35.8175C72.8687 35.9056 73.1153 35.9937 73.3619 36.0994Z" fill="white"/>
<path d="M3.32901 31.7829C3.25856 32.4348 3.4347 33.1748 2.73014 33.4214C2.39548 33.5448 1.90229 33.2629 1.47955 33.1572C1.49717 33.0867 1.49717 33.0162 1.51478 32.9457C1.14489 33.1043 0.757384 33.2629 0.352264 33.439C0.211353 32.9986 0.42272 32.8224 0.757384 32.6991C1.03921 32.5934 1.30341 32.4701 1.56762 32.3467C1.56762 32.2763 1.55001 32.2234 1.55001 32.1529C1.33864 32.1001 1.12728 32.0648 0.933523 31.9767C0.774998 31.9063 0.651701 31.8006 0.510789 31.6949C0.686928 31.6244 0.863067 31.4658 1.02159 31.4834C1.76138 31.5539 2.48355 31.6596 3.32901 31.7829ZM1.93752 32.1001C2.00797 32.3996 1.99036 32.6286 2.09604 32.8048C2.14888 32.8929 2.46593 32.9634 2.53639 32.8929C2.6773 32.7519 2.73014 32.5405 2.85344 32.2939C2.51877 32.2234 2.28979 32.1705 1.93752 32.1001Z" fill="white"/>
<path d="M23.6555 71.124C23.4969 71.0359 23.4089 70.9831 23.3032 70.9302C23.1447 70.8598 22.9685 70.8069 22.7395 70.7364C22.6163 70.9831 22.5282 71.2474 22.3697 71.4764C22.2992 71.5821 22.1407 71.6173 22.035 71.6878C21.9821 71.5469 21.8589 71.3707 21.8941 71.2826C22.1935 70.5426 22.5282 69.8027 22.8452 69.0627C23.2503 69.2037 23.2504 69.2037 22.9861 70.2784C23.2504 70.4017 23.5146 70.525 23.8492 70.666C23.9725 70.4017 24.0606 70.1374 24.2191 69.9084C24.2896 69.8027 24.4657 69.7851 24.589 69.7146C24.6242 69.8379 24.7475 69.9788 24.6947 70.0846C24.4129 70.7717 24.131 71.4588 23.814 72.1283C23.7788 72.2163 23.6026 72.2516 23.4793 72.3221C23.4265 72.1811 23.3208 72.0225 23.3384 71.8992C23.4089 71.6526 23.5498 71.4059 23.6555 71.124Z" fill="white"/>
<path d="M27.4601 4.22835C27.5305 3.36506 27.5834 2.50178 27.6714 1.62088C27.689 1.49755 27.8123 1.32137 27.9004 1.30375C28.0061 1.28614 28.1822 1.39184 28.2527 1.49755C28.7635 2.20227 29.2391 2.92461 29.6618 3.80552C29.468 3.73504 29.2214 3.73504 29.0629 3.61172C28.605 3.22412 28.147 3.32983 27.9532 3.89361C27.9004 4.05217 27.7419 4.19311 27.6362 4.33406C27.5833 4.29882 27.5305 4.26358 27.4601 4.22835Z" fill="white"/>
<path d="M60.6799 67.2128C60.2748 67.2128 59.7464 67.0543 59.4645 67.2481C59.1651 67.4419 59.1123 67.988 58.7952 68.3932C58.531 67.5123 58.2316 66.649 58.0026 65.7505C57.9145 65.3805 58.1963 65.3101 58.4958 65.5039C59.2179 65.9796 59.9401 66.4729 60.6799 66.9486C60.6799 67.0366 60.6799 67.1247 60.6799 67.2128Z" fill="white"/>
<path d="M66.8271 56.043C67.0033 56.0254 67.2146 55.9373 67.3379 56.0078C67.7959 56.272 68.2363 56.5539 68.659 56.8711C69.1698 57.2587 69.2226 57.8048 68.8527 58.3157C68.4829 58.8267 68.0249 58.9148 67.4789 58.5624C66.9681 58.2277 66.4573 57.8929 65.9288 57.5229C66.0345 57.3644 66.1402 57.2234 66.2459 57.0825C66.7743 57.4172 67.2675 57.752 67.7607 58.0691C68.0249 58.2453 68.3419 58.3157 68.4652 57.9634C68.5357 57.7696 68.4476 57.382 68.2891 57.2587C67.8488 56.8887 67.3203 56.5892 66.8448 56.2544C66.8271 56.1839 66.8271 56.1135 66.8271 56.043Z" fill="white"/>
<path d="M47.3814 72.2516C47.6808 72.1635 47.9627 72.0578 48.2973 71.9521C48.3678 72.1459 48.4382 72.2692 48.4735 72.4101C48.5263 72.7449 48.861 73.0972 48.403 73.3967C47.945 73.6963 47.4695 73.7843 46.9763 73.5201C46.4479 73.2382 46.1484 72.4454 46.2717 71.7406C46.3774 71.1064 46.853 70.8421 47.4342 70.754C47.5751 70.7364 47.7513 70.8421 47.9098 70.895C47.7865 70.9831 47.6808 71.124 47.5575 71.1592C46.7297 71.4588 46.5183 72.2692 47.1348 72.9034C47.2757 73.0444 47.5223 73.1501 47.7161 73.1325C47.8746 73.1149 47.9979 72.9034 48.1388 72.7625C48.0155 72.6568 47.8922 72.5335 47.7513 72.463C47.6632 72.4101 47.5575 72.4278 47.4518 72.4101C47.399 72.3749 47.399 72.3044 47.3814 72.2516Z" fill="white"/>
<path d="M45.2677 3.5941C45.7433 2.88937 46.2189 2.18465 46.7121 1.47993C46.7825 1.37422 46.941 1.30375 47.082 1.28613C47.1348 1.28613 47.2757 1.4447 47.2757 1.5504C47.3814 2.43131 47.4519 3.32983 47.399 4.31644C47.2581 4.17549 47.0643 4.05217 46.9939 3.87598C46.7473 3.27697 46.3598 3.18888 45.8314 3.61171C45.7081 3.71742 45.5143 3.71742 45.3382 3.77028C45.3206 3.6998 45.303 3.64695 45.2677 3.5941Z" fill="white"/>
<path d="M5.2137 49.8943C5.10801 50.0529 5.03756 50.2819 4.89665 50.3524C4.49153 50.5638 4.01595 50.6519 3.62844 50.8985C3.43469 51.0219 3.38185 51.3566 3.27617 51.6033C3.52276 51.6737 3.76935 51.8499 3.98072 51.7971C4.43868 51.6913 4.87903 51.4271 5.33699 51.2861C5.4779 51.2333 5.67166 51.3566 5.83018 51.3918C5.83018 51.4623 5.81257 51.5328 5.81257 51.6033C5.2137 51.8499 4.61482 52.1318 3.99834 52.3432C3.4523 52.537 3.02957 52.2904 2.80059 51.7266C2.57161 51.1628 2.71252 50.7047 3.24094 50.4581C3.8222 50.1938 4.40346 49.9648 5.00233 49.7181C5.07278 49.7886 5.14324 49.8414 5.2137 49.8943Z" fill="white"/>
<path d="M17.7724 5.77871C18.0718 6.27202 18.3361 6.76532 18.6707 7.22339C18.794 7.39957 19.1287 7.41719 19.3577 7.50528C19.4105 7.24101 19.5866 6.9415 19.4986 6.73009C19.34 6.30726 19.023 5.93728 18.8116 5.53206C18.7412 5.40874 18.8116 5.21494 18.8292 5.03876C18.9525 5.10923 19.1463 5.14447 19.2167 5.25017C19.5162 5.69062 19.7804 6.14869 20.027 6.60676C20.3264 7.15292 20.1503 7.57575 19.6395 7.87526C19.0406 8.24524 18.6531 8.19238 18.2832 7.62861C17.9838 7.18816 17.702 6.74771 17.4554 6.28964C17.3849 6.14869 17.473 5.93728 17.473 5.7611C17.5963 5.7611 17.6843 5.77871 17.7724 5.77871Z" fill="white"/>
<path d="M14.7428 65.9267C14.6372 66.05 14.5491 66.191 14.4082 66.3672C14.6724 66.6138 14.9366 66.8428 15.1832 67.0719C14.919 67.4947 14.69 67.4066 13.686 66.3848C14.232 65.6977 14.7781 64.993 15.3241 64.3058C16.3633 64.7815 16.6628 65.1691 16.3986 65.592C16.2576 65.5039 16.1167 65.3982 15.9758 65.3101C15.8349 65.2044 15.694 65.1163 15.5355 64.9929C15.3946 65.1515 15.2713 65.2925 15.1127 65.4686C15.3769 65.6801 15.6059 65.8739 15.923 66.1381C15.3946 66.6667 15.1656 65.9091 14.7428 65.9267Z" fill="white"/>
<path d="M55.8185 6.07824C56.0827 6.25442 56.3469 6.4306 56.5935 6.58917C56.3469 6.99438 56.3469 6.99438 55.5366 6.53631C55.4309 6.69487 55.3077 6.87106 55.1667 7.08247C55.5014 7.29389 55.7832 7.47007 56.0827 7.66387C55.8537 8.15717 55.7128 8.12194 54.4798 7.2058C54.9378 6.4306 55.3957 5.63779 55.8889 4.82736C56.294 5.0564 56.6463 5.2502 56.9986 5.47923C57.1043 5.5497 57.1395 5.72588 57.21 5.86683C57.0514 5.86683 56.8577 5.91968 56.7344 5.86683C56.3469 5.67303 55.9946 5.33829 55.8185 6.07824Z" fill="white"/>
<path d="M3.34663 22.1635C4.24494 22.5335 5.03756 22.8682 5.91826 23.2382C5.7245 23.7491 5.53075 24.2248 5.337 24.7005C4.91426 24.5948 4.91426 24.5948 5.23132 23.573C5.05518 23.5025 4.86142 23.432 4.66767 23.3439C4.52676 23.661 4.40346 23.9077 4.26255 24.2072C3.46992 23.9253 4.29778 23.5025 4.19209 23.1501C4.01596 23.062 3.83982 22.9563 3.59322 22.833C3.46992 23.1149 3.38186 23.3615 3.25856 23.573C3.20572 23.6787 3.04719 23.7139 2.94151 23.7844C2.90628 23.6434 2.81821 23.4849 2.85344 23.3792C2.95912 22.9916 3.15287 22.6216 3.34663 22.1635Z" fill="white"/>
<path d="M72.0937 40.9619C72.1113 40.5039 72.1113 40.1515 72.1465 39.8168C72.1641 39.6582 72.3051 39.5173 72.3931 39.3587C72.4636 39.5173 72.5693 39.6582 72.6045 39.8344C72.6397 40.0282 72.6045 40.222 72.6045 40.451C72.8159 40.4686 73.0096 40.4863 73.1505 40.4863C73.4676 40.222 73.0096 39.5701 73.7494 39.5349C73.7494 39.8696 73.7494 40.1691 73.7494 40.5567C73.996 40.5743 74.1898 40.5743 74.4363 40.592C74.454 40.2925 74.454 40.0458 74.5068 39.8344C74.542 39.7287 74.6829 39.6406 74.771 39.5349C74.8415 39.6406 74.9119 39.7639 74.9824 39.8696C75 39.9049 74.9824 39.9577 74.9824 39.993C75 41.1381 74.9824 41.1557 73.8727 41.1029C73.2914 41.0677 72.7278 41.0148 72.0937 40.9619Z" fill="white"/>
<path d="M6.12962 18.7104C5.90064 18.5694 5.67166 18.4285 5.4603 18.2875C5.51314 17.8647 5.68928 17.7942 6.02394 18.0056C6.58759 18.3404 7.16884 18.6575 7.71487 19.0099C7.83817 19.098 7.97908 19.3622 7.92624 19.4679C7.76772 19.8027 7.59158 20.1727 7.30976 20.3665C7.08077 20.525 6.64043 20.5779 6.41145 20.4369C6.16485 20.296 5.93587 19.926 5.88303 19.6265C5.8478 19.3799 6.04155 19.0627 6.12962 18.7104ZM6.64043 18.9923C6.37622 19.3975 6.21769 19.7674 6.67566 19.9436C6.86941 20.0141 7.16884 19.7851 7.43305 19.6794C7.41544 19.6089 7.39782 19.5384 7.38021 19.4503C7.15123 19.327 6.92225 19.1684 6.64043 18.9923Z" fill="white"/>
<path d="M3.78699 45.5603C3.9279 46.036 4.05119 46.4412 4.12165 46.8288C4.13926 46.9345 4.03358 47.0754 3.98074 47.1987C3.87506 47.1283 3.73414 47.0578 3.6813 46.9521C3.57562 46.7407 3.54039 46.494 3.45232 46.2298C3.25857 46.265 3.06482 46.2826 2.83584 46.3178C2.88868 46.5645 2.94152 46.7759 2.95913 46.9873C2.95913 47.1283 2.87106 47.2692 2.81822 47.4102C2.71254 47.3045 2.57163 47.234 2.50117 47.093C2.4131 46.9345 2.39549 46.7231 2.32503 46.494C2.09605 46.5469 1.91991 46.5997 1.69093 46.6526C1.76139 47.0226 1.83184 47.3573 1.95514 47.8858C1.69093 47.7273 1.47957 47.6744 1.42672 47.5687C1.30343 47.2516 1.21536 46.8992 1.16251 46.5645C1.1449 46.4588 1.23297 46.2298 1.32104 46.2121C2.13128 45.9831 2.94152 45.7717 3.78699 45.5603Z" fill="white"/>
<path d="M35.9676 2.60748C36.1085 2.55462 36.267 2.44891 36.4079 2.43129C36.5841 2.41368 36.7602 2.48415 36.9187 2.43129C37.042 2.39606 37.2182 2.27273 37.2358 2.16702C37.2534 2.06132 37.1477 1.88514 37.042 1.81466C36.8835 1.69134 36.6369 1.69134 36.5312 1.55039C36.3199 1.28612 36.0557 0.986615 36.0204 0.66949C35.9852 0.193803 36.4079 0.0176221 36.8307 4.05824e-06C37.1125 -0.017614 37.3767 0.0528582 37.6585 0.0880943C37.6761 0.158566 37.6938 0.246657 37.6938 0.317129C37.5176 0.369983 37.3239 0.405219 37.1477 0.475691C36.9364 0.546164 36.7426 0.634254 36.5488 0.704726C36.6898 0.84567 36.8131 1.02185 36.954 1.14518C37.0597 1.23327 37.2886 1.25089 37.3591 1.35659C37.5352 1.63848 37.7818 1.95561 37.7466 2.2375C37.7114 2.46653 37.3767 2.76604 37.1125 2.85413C36.7778 2.95984 36.3903 2.87175 36.038 2.87175C36.038 2.78366 36.0028 2.69557 35.9676 2.60748Z" fill="white"/>
<path d="M71.7943 30.2678C71.8647 30.444 71.8999 30.6378 71.988 30.7963C72.0937 30.9901 72.2346 31.1663 72.3579 31.3425C72.4812 31.1839 72.6221 31.0254 72.7102 30.8316C72.7982 30.6378 72.8159 30.4087 72.9215 30.2149C73.2386 29.6688 74.0136 29.6864 74.3131 30.2502C74.4187 30.4616 74.4892 30.7083 74.5068 30.9373C74.5068 31.1311 74.3835 31.3249 74.3131 31.5187C74.2426 31.3425 74.1721 31.1663 74.0665 31.0078C73.9432 30.7963 73.8199 30.5849 73.6789 30.3911C73.538 30.5321 73.3267 30.673 73.2914 30.8316C73.1505 31.4306 72.9744 31.9591 72.1994 31.8534C71.7062 31.783 71.5124 31.272 71.6005 30.3735C71.6533 30.3383 71.7238 30.303 71.7943 30.2678Z" fill="white"/>
<path d="M71.2834 45.6307C71.6886 44.8027 72.6397 45.3665 73.2386 44.9965C72.8511 44.4151 71.759 44.5208 71.6709 43.3932C72.5693 43.957 73.3267 44.4151 74.0841 44.9084C74.1721 44.9612 74.2778 45.1022 74.2778 45.2079C74.2778 45.296 74.1369 45.4369 74.0312 45.4545C73.1505 45.6131 72.2698 45.7364 71.3891 45.8774C71.3539 45.7717 71.3187 45.7012 71.2834 45.6307Z" fill="white"/>
<path d="M22.8628 3.57648C22.9685 3.80551 23.0566 3.98169 23.1447 4.15787C23.4617 4.05217 23.7435 3.94646 24.0254 3.84075C24.1839 4.21073 24.1839 4.21073 23.4265 4.63356C23.268 5.02116 24.0254 5.49684 23.3032 5.91968C23.1799 5.67303 23.1094 5.53208 23.039 5.37352C22.7572 4.70403 22.493 4.05217 22.1759 3.31221C22.5986 3.13603 23.0038 2.94223 23.3913 2.80129C23.4969 2.76605 23.6379 2.85414 23.7788 2.88938C23.7083 2.99508 23.6555 3.15365 23.5498 3.22412C23.3736 3.36506 23.1447 3.45315 22.8628 3.57648Z" fill="white"/>
<path d="M56.4878 69.5736C56.4525 69.7146 56.4525 69.926 56.3469 70.0141C55.9241 70.3841 55.4486 70.5426 54.9025 70.296C54.3565 70.0493 53.9514 69.2741 54.0042 68.6046C54.0394 68.0056 54.4622 67.7414 54.9377 67.5476C55.0258 67.5123 55.1667 67.5828 55.29 67.6004C55.2372 67.7238 55.2196 67.8823 55.1139 67.9528C54.3741 68.5166 54.3389 69.0275 54.973 69.6441C55.3605 69.9788 55.519 69.9789 56.4878 69.5736Z" fill="white"/>
<path d="M20.4145 67.9704C20.2384 67.9528 20.0446 67.9704 19.9037 67.8823C19.3224 67.5652 18.9526 67.6533 18.6003 68.2699C18.248 68.8689 18.3361 69.2213 18.9173 69.5913C19.0582 69.6794 19.1287 69.8555 19.1639 70.0493C18.477 69.9789 17.9486 69.7498 17.8605 69.0275C17.7724 68.358 18.2656 67.5299 18.8293 67.2833C19.3753 67.0543 19.9389 67.2304 20.4145 67.9704Z" fill="white"/>
<path d="M67.9368 20.7012C67.2499 19.9965 68.2186 19.6794 68.2362 19.1332C67.7959 18.9218 67.0913 19.6089 66.8095 18.9042C67.7078 18.6575 68.5709 18.4109 69.434 18.1818C69.5221 18.1642 69.6982 18.2347 69.751 18.3228C69.7863 18.3932 69.751 18.6047 69.6806 18.6399C68.747 19.0099 68.5357 19.9612 67.9368 20.7012Z" fill="white"/>
<path d="M71.7062 22.234C72.0232 22.5159 72.0232 22.7097 71.6357 22.8682C71.0721 23.0973 70.5261 23.3439 69.9624 23.5906C69.9624 23.9253 69.9624 24.2248 69.9624 24.5243C69.892 24.5243 69.8215 24.5419 69.751 24.5419C69.5221 24.031 69.2755 23.5201 69.0641 22.9916C69.0113 22.8506 69.0641 22.6568 69.0641 22.4806C69.205 22.5687 69.3459 22.6568 69.4692 22.7625C69.5397 22.833 69.5925 22.9387 69.663 23.0796C70.3499 22.8154 71.0369 22.5335 71.7062 22.234Z" fill="white"/>
<path d="M41.7802 0.757595C41.5864 0.739977 41.4631 0.757595 41.3751 0.704741C41.2341 0.616651 41.1108 0.510943 40.9875 0.405234C41.1285 0.35238 41.2694 0.229054 41.4103 0.246672C41.8506 0.26429 42.2734 0.317144 42.7137 0.387616C42.8722 0.422852 43.0131 0.563797 43.1717 0.651887C43.0131 0.722359 42.8722 0.810449 42.7137 0.863303C42.608 0.89854 42.5023 0.880921 42.3262 0.880921C42.2557 1.46232 42.1853 2.04371 42.1148 2.62511C42.0444 3.08318 42.0444 3.08318 41.516 3.03032C41.604 2.29037 41.6921 1.55041 41.7802 0.757595Z" fill="white"/>
<path d="M52.6832 3.69981C52.4542 3.62933 52.2428 3.54124 51.9434 3.45315C51.644 4.17549 51.3445 4.8626 51.0451 5.5497C50.6224 5.51446 50.5519 5.32067 50.7104 4.9683C50.957 4.40453 51.1684 3.84075 51.3974 3.24174C51.1508 3.11841 50.9394 2.99508 50.5871 2.8189C50.8161 2.7132 51.0099 2.53702 51.0803 2.58987C51.6616 2.88938 52.4718 2.85414 52.8241 3.50601C52.7889 3.57648 52.736 3.64695 52.6832 3.69981Z" fill="white"/>
<path d="M12.0479 61.945C11.9598 61.6455 11.8894 61.3812 11.8013 61.117C12.0303 61.2579 12.2945 61.3636 12.5059 61.5398C12.7701 61.7688 13.0167 62.0155 13.228 62.2974C13.3161 62.4031 13.2809 62.6145 13.2985 62.7731C13.2456 62.7907 13.1928 62.8083 13.1223 62.8083C12.9286 62.6498 12.7348 62.4736 12.3649 62.1741C11.9598 62.6498 11.5723 63.1078 11.1672 63.5835C10.903 63.9006 10.6916 63.8302 10.4979 63.3897C11.0439 62.914 11.5723 62.4031 12.0479 61.945Z" fill="white"/>
<path d="M3.55798 28.3298C2.9415 28.1536 2.34262 28.0127 1.76137 27.8189C1.62045 27.766 1.53239 27.5899 1.40909 27.4665C1.56761 27.4137 1.74375 27.2904 1.90228 27.3256C2.50115 27.4665 3.08241 27.6427 3.62844 27.7837C3.98072 27.6603 3.71651 26.8499 4.42107 27.1847C4.28015 27.7308 4.15686 28.2594 3.98072 28.7703C3.92788 28.9288 3.73412 29.0345 3.61083 29.1755C3.5756 28.9993 3.54037 28.8407 3.52276 28.6646C3.50514 28.5941 3.54037 28.506 3.55798 28.3298Z" fill="white"/>
<path d="M63.0401 64.3587C63.2691 64.1473 63.4629 63.9359 63.6919 63.7597C63.7799 63.6892 63.9385 63.7245 64.0794 63.7068C64.0618 63.8302 64.097 64.0063 64.0265 64.0944C63.7271 64.4644 63.41 64.8168 63.1811 65.081C62.3884 64.3763 61.7015 63.7597 60.9617 63.1078C61.1378 62.9316 61.2259 62.8259 61.3492 62.7026C61.9305 63.284 62.4589 63.7949 63.0401 64.3587Z" fill="white"/>
<path d="M37.2182 75C37.2182 74.0663 37.2182 73.203 37.2182 72.3045C37.6233 72.1459 37.6937 72.3573 37.6937 72.7097C37.6937 73.3087 37.6937 73.9253 37.6937 74.5243C38.1165 74.5243 38.3983 74.5067 38.6801 74.542C38.7858 74.5596 38.8739 74.7005 38.9619 74.7886C38.8739 74.8591 38.7858 74.9824 38.6977 74.9824C38.2045 75 37.729 75 37.2182 75Z" fill="white"/>
<path d="M3.02958 41.2791C3.22333 41.7724 2.95912 41.8429 2.60684 41.8781C2.0432 41.9486 1.47955 42.019 0.863065 42.1071C0.898293 42.5124 0.933521 42.8823 0.968749 43.2347C0.933521 43.2875 0.898293 43.3228 0.863065 43.3756C0.739768 43.2699 0.546015 43.1818 0.510787 43.0409C0.422718 42.759 0.422718 42.4419 0.369876 42.1424C0.281806 41.7372 0.493173 41.5962 0.863065 41.561C1.55001 41.4729 2.25456 41.3672 3.02958 41.2791Z" fill="white"/>
<path d="M70.667 27.0613C71.442 26.8323 72.1994 26.5857 72.9744 26.3742C73.0801 26.339 73.2386 26.4799 73.3795 26.5328C73.2915 26.6385 73.2034 26.8147 73.0977 26.8675C72.4636 27.0966 71.8119 27.308 71.1602 27.4665C71.0016 27.5018 70.8079 27.3432 70.6141 27.2904C70.6317 27.2023 70.6494 27.1318 70.667 27.0613Z" fill="white"/>
<path d="M51.0627 69.5384C51.3621 70.2607 51.6792 70.9831 51.961 71.723C52.0139 71.864 51.9082 72.0402 51.8729 72.2163C51.732 72.1106 51.5383 72.0578 51.4678 71.9168C51.186 71.3178 50.9746 70.7012 50.6928 70.1022C50.5343 69.697 50.6752 69.5736 51.0627 69.5384Z" fill="white"/>
<path d="M70.3499 48.6258C70.5261 48.5553 70.7374 48.4144 70.8959 48.4496C71.53 48.6258 72.1465 48.8372 72.763 49.0839C72.9039 49.1367 72.992 49.3305 73.0977 49.4538C72.9392 49.5067 72.763 49.63 72.6221 49.5772C71.8647 49.3481 71.1249 49.0839 70.3851 48.8372C70.3675 48.7844 70.3675 48.7139 70.3499 48.6258Z" fill="white"/>
</g>
<defs>
<clipPath id="clip0_54_83">
<rect width="75" height="75" fill="white"/>
</clipPath>
</defs>
</svg>
