<svg width="87" height="67" viewBox="0 0 87 67" fill="none" xmlns="http://www.w3.org/2000/svg">
<g clip-path="url(#clip0_54_65)">
<path d="M61.1134 63.995C60.6669 64.4306 60.2562 64.5195 59.7918 64.3417C59.6757 64.2972 59.5597 64.235 59.4525 64.1817C58.4613 63.666 58.4792 63.6927 57.6577 64.5106C57.2201 64.9463 56.7201 65.3108 56.2111 65.6575C56.0325 65.782 55.7646 65.7553 55.5414 65.7998C55.5146 65.7464 55.4878 65.6842 55.461 65.6308C55.586 65.4975 55.7021 65.3463 55.8361 65.2219C56.2825 64.7951 56.7647 64.395 57.1844 63.9327C57.5148 63.5771 57.4434 63.3548 56.9969 63.2037C54.2734 62.288 51.4963 61.6212 48.6657 61.1411C48.1746 61.061 48.0317 61.3722 47.9156 61.7456C47.5049 63.097 47.112 64.4573 46.6923 65.8087C46.5851 66.1554 46.4244 66.5021 46.2369 66.8044C46.1744 66.9111 45.9422 66.9111 45.7815 66.9644C45.7725 66.8133 45.719 66.6444 45.7636 66.5021C46.2369 64.9374 46.7369 63.3815 47.2102 61.8167C47.4156 61.1411 47.2995 60.9899 46.6119 60.9455C45.5225 60.8654 44.4242 60.7854 43.3348 60.7143C42.3704 60.6521 42.2632 60.7677 42.2632 61.7456C42.2632 63.2393 42.2632 64.7329 42.2632 66.2265C42.2632 66.3599 42.299 66.511 42.2543 66.6177C42.1918 66.76 42.0579 66.8755 41.9507 67.0089C41.8346 66.8755 41.6203 66.76 41.6114 66.6177C41.5667 66.102 41.5935 65.5686 41.5935 65.0529C41.5935 63.8349 41.5935 62.6258 41.6114 61.4078C41.6203 60.8743 41.3971 60.661 40.8881 60.7054C39.4237 60.8299 37.9503 60.9366 36.4859 61.0699C35.9322 61.1233 35.8519 61.3455 36.0394 61.8968C36.5484 63.3726 37.0395 64.8574 37.5217 66.3421C37.5485 66.4399 37.5217 66.6177 37.4503 66.6711C37.3699 66.7333 37.1645 66.7422 37.1199 66.6799C36.9413 66.4577 36.7448 66.2176 36.6645 65.9509C36.2001 64.5551 35.7715 63.1503 35.334 61.7456C35.1822 61.2389 34.8428 61.2122 34.4321 61.3189C32.0568 61.9234 29.6816 62.5191 27.3153 63.1237C27.1546 63.1592 27.0028 63.2126 26.851 63.257C26.1991 63.4526 26.1634 63.5238 26.342 64.1994C25.8687 64.3773 25.5651 64.0661 25.2615 63.7816C23.7078 62.3413 22.4487 60.6432 21.3325 58.8295C19.8949 56.4912 18.7698 53.993 17.8054 51.4058C17.4393 50.4189 17.4214 50.4367 16.4213 50.7034C15.1355 51.0413 13.8228 51.2991 12.5549 51.6992C11.3404 52.0815 10.1707 52.6149 8.98306 53.0683C8.84018 53.1217 8.63481 53.1839 8.52765 53.1128C8.3312 52.9972 8.18833 52.7838 8.0276 52.606C8.17047 52.4727 8.29549 52.2593 8.46515 52.206C9.86708 51.7525 11.2779 51.2991 12.6977 50.8901C13.9211 50.5345 15.1623 50.2144 16.4035 49.8944C17.1089 49.7077 17.1893 49.5832 16.9928 48.8364C16.6267 47.4317 16.2517 46.0269 15.8945 44.6133C15.823 44.3377 15.6623 43.9821 16.0731 43.8576C16.5017 43.7243 16.6356 44.071 16.7249 44.4088C17.0732 45.7958 17.4214 47.1916 17.7697 48.5875C17.984 49.4498 18.1358 49.5388 18.9841 49.3787C20.8057 49.0231 22.6184 48.6764 24.44 48.3296C24.7615 48.2674 25.0472 48.303 25.0918 48.703C25.1365 49.1209 24.8775 49.2987 24.5114 49.352C22.9488 49.5743 21.3772 49.8055 19.8145 50.0277C19.5466 50.0633 19.2788 50.0989 19.0109 50.1433C18.3769 50.2678 18.2608 50.4545 18.5376 51.0591C19.3948 52.9705 20.1717 54.9354 21.1718 56.7669C22.154 58.5806 23.3327 60.2876 24.5025 61.9857C25.1722 62.9636 25.3865 62.9636 26.4581 62.528C28.8244 61.55 31.28 60.9455 33.816 60.6343C35.0839 60.4743 35.0839 60.4298 34.8428 59.1229C34.3964 56.7224 33.9945 54.313 33.5302 51.9126C33.4409 51.4502 33.1462 51.0235 32.9141 50.5967C32.8516 50.4901 32.6373 50.4812 32.4855 50.4278C32.4408 50.579 32.3515 50.7301 32.3515 50.8724C32.3426 52.2326 32.3515 53.6018 32.3515 54.9621C32.3515 55.7 32.2086 55.8778 31.5121 55.8689C30.3602 55.8511 29.2173 55.7978 28.0654 55.7711C27.6278 55.7622 27.4582 55.5577 27.4939 55.1043C27.5207 54.7487 27.5117 54.3931 27.4939 54.0374C27.4671 53.5662 27.6814 53.3351 28.1189 53.3173C28.5654 53.2995 29.0208 53.2995 29.4673 53.3084C29.8245 53.3084 30.0031 53.1395 29.9941 52.7661C29.9673 51.308 29.9316 49.8588 29.9138 48.4007C29.9138 48.1963 30.0031 47.9918 30.0566 47.7873C30.2263 47.8673 30.4317 47.9118 30.5567 48.0362C37.9324 55.0421 49.1747 54.5442 56.2468 47.6539C59.4704 44.5155 61.5777 40.7992 62.2832 36.2472C62.3814 35.6338 62.5778 35.5004 63.185 35.6071C64.3548 35.8205 65.5156 36.0516 66.6854 36.265C67.489 36.4072 67.6319 36.2472 67.5962 35.3937C67.5248 33.4733 67.4355 31.553 67.4265 29.6326C67.4176 27.0721 66.9086 24.5827 66.3729 22.1111C66.1407 21.0264 65.7478 19.9684 65.4353 18.9015C65.3192 18.5104 65.0513 18.3859 64.6763 18.4481C62.8011 18.7771 60.9259 19.106 59.0507 19.4617C58.247 19.6128 58.0506 19.5417 57.5952 18.6971C58.4345 18.5904 59.2471 18.4837 60.0508 18.3681C61.4527 18.1725 62.8636 17.9769 64.2655 17.7547C64.9263 17.648 65.0245 17.4435 64.7745 16.7945C63.1225 12.5003 61.0152 8.4817 58.0595 4.98767C57.7202 4.58759 57.3898 4.6765 56.9969 4.79208C55.1128 5.33441 53.2287 5.88563 51.3267 6.3835C50.5945 6.57021 49.8355 6.62355 49.0943 6.73913C48.3353 6.85471 48.2281 7.00585 48.3799 7.76156C48.6746 9.20184 48.9782 10.6421 49.2729 12.0913C49.3354 12.4025 49.5586 12.8114 49.0675 12.9181C48.6389 13.007 48.4692 12.6247 48.3978 12.2691C48.1746 11.1311 47.9781 9.99311 47.7638 8.85511C47.7013 8.50837 47.6388 8.16164 47.5584 7.8149C47.3798 7.00585 47.3709 6.98807 46.5494 7.03252C45.3618 7.09476 44.1831 7.19255 42.9955 7.25479C42.5936 7.28146 42.424 7.45038 42.424 7.87713C42.4329 8.99736 42.4329 10.1176 42.424 11.2378C42.424 11.4334 42.3972 11.6734 42.29 11.8157C42.2097 11.9224 41.9329 12.0024 41.8168 11.9402C41.6828 11.869 41.5489 11.6379 41.54 11.4779C41.5132 10.3754 41.531 9.27297 41.531 8.17053C41.531 7.35259 41.4775 7.29924 40.6827 7.2459C39.4147 7.1481 38.1378 7.03252 36.8698 6.93473C36.0394 6.87249 35.8251 7.06809 35.6822 7.93048C35.3697 9.77084 35.0572 11.6112 34.7268 13.4427C34.6018 14.1539 34.3071 14.3495 33.6463 14.1895C34.0928 12.0024 34.5303 9.8153 34.9946 7.6282C35.1465 6.89916 35.1018 6.74802 34.3964 6.65022C31.6818 6.25904 29.0476 5.53 26.4759 4.54314C25.9401 4.33865 25.6008 4.52536 25.2704 4.95211C22.672 8.27722 20.52 11.8868 18.9841 15.8698C18.868 16.1632 18.7341 16.4477 18.618 16.7411C18.4215 17.2568 18.5287 17.479 19.0555 17.5591C20.761 17.8347 22.4666 18.0925 24.1721 18.3592C24.3864 18.3948 24.6007 18.4126 24.815 18.457C25.1276 18.5281 25.4044 18.7237 25.2615 19.0705C25.1901 19.2572 24.8686 19.4439 24.6632 19.435C24.181 19.4172 23.7078 19.2661 23.2345 19.1861C21.6986 18.9104 20.1538 18.6348 18.618 18.3503C18.2251 18.2792 18.0465 18.4837 17.9572 18.8304C17.6 20.2174 17.216 21.6043 16.9214 23.0001C16.6446 24.2893 16.466 25.6051 16.2427 26.912C16.1802 27.2677 15.9838 27.4544 15.6445 27.4099C15.2605 27.3655 15.198 27.0632 15.2605 26.7431C15.8141 24.1559 16.3677 21.5687 16.966 18.9993C17.1535 18.1992 17.1446 18.048 16.3767 17.8525C13.6532 17.159 10.9386 16.4388 8.3312 15.3453C8.08118 15.2386 7.61684 15.2386 7.81329 14.7585C7.97402 14.3495 8.32227 14.5096 8.60802 14.6251C11.1708 15.7365 13.8496 16.4388 16.5553 17.0701C17.4214 17.2746 17.5107 17.2212 17.8322 16.3588C19.243 12.5536 21.02 8.9618 23.4845 5.77005C23.806 5.35219 24.1632 4.94322 24.5114 4.54314C24.7436 4.27642 24.7793 4.07193 24.4132 3.90301C24.3061 3.84967 24.2525 3.70742 24.1721 3.60073C24.2793 3.51182 24.3775 3.39624 24.5025 3.35179C25.3419 3.04062 26.1812 2.73834 27.0385 2.46273C27.2171 2.40049 27.4492 2.48051 27.6546 2.49829C27.5296 2.65832 27.4224 2.82724 27.2885 2.96949C27.0831 3.18287 26.8599 3.37846 26.6366 3.58295C26.8867 3.7252 27.1188 3.93857 27.3867 4.0097C29.3601 4.50758 31.3336 4.98767 33.307 5.46777C33.7445 5.57446 34.1821 5.68114 34.6196 5.77894C35.0839 5.88563 35.3697 5.70781 35.5304 5.22772C35.9769 3.88523 36.4234 2.54274 36.9145 1.22692C37.0306 0.924642 37.2985 0.666813 37.5485 0.435656C37.6288 0.36453 37.8432 0.435656 37.995 0.444546C37.986 0.577906 38.0128 0.729047 37.9682 0.853516C37.4592 2.34715 36.9323 3.84078 36.4323 5.33441C36.2716 5.80561 36.4144 6.00121 36.8877 6.03677C38.2271 6.13457 39.5755 6.21458 40.9149 6.32127C41.4507 6.36572 41.5578 6.05455 41.5578 5.60113C41.5578 3.93857 41.5578 2.27602 41.5489 0.613469C41.5489 0.204498 41.6739 -0.0977839 42.0936 0.035576C42.2632 0.0889199 42.4329 0.444546 42.4418 0.666813C42.4686 2.25824 42.4597 3.84078 42.4508 5.4322C42.4418 6.25904 42.5133 6.32127 43.308 6.27682C44.3438 6.21458 45.3886 6.20569 46.4333 6.12568C47.1298 6.07233 47.2191 5.9123 47.0048 5.22772C46.603 3.94746 46.2012 2.66721 45.7815 1.39585C45.6922 1.12024 45.5136 0.871298 45.4154 0.595687C45.3618 0.435656 45.3886 0.248952 45.3707 0.0711386C45.585 0.0889199 45.8708 0.0266853 46.0047 0.151155C46.1922 0.320077 46.3083 0.604578 46.3976 0.871298C46.8798 2.2938 47.3531 3.7252 47.8263 5.15659C48.0496 5.83228 48.1924 5.97453 48.8532 5.82339C51.3267 5.27217 53.8001 4.69428 56.2647 4.1075C56.4522 4.06304 56.7558 3.87634 56.7558 3.77854C56.7469 3.57406 56.5861 3.33401 56.4254 3.19176C55.7111 2.56941 54.9699 1.97374 54.2466 1.36028C54.1663 1.29805 54.1216 1.19136 53.9698 0.995767C54.2913 1.01355 54.5145 0.995767 54.7288 1.04022C55.8182 1.27138 56.6397 1.94707 57.3451 2.80946C57.8631 3.43181 58.2202 3.51182 58.9525 3.1562C59.265 3.00506 59.5597 2.82724 59.8811 2.71166C60.399 2.52496 60.8634 2.64054 61.292 3.11174C61.1491 3.19176 61.042 3.28067 60.9169 3.32512C60.4526 3.52071 59.9793 3.70742 59.515 3.89412C58.8096 4.18751 58.7917 4.27642 59.2561 4.91655C59.765 5.61891 60.274 6.32127 60.7919 7.01474C62.6314 9.46856 63.9619 12.2158 65.0334 15.1052C65.2477 15.6831 65.4799 16.2521 65.6764 16.83C65.8282 17.2834 66.1318 17.4613 66.5604 17.3457C70.275 16.3499 74.0611 15.5676 77.5079 13.6827C77.6062 13.6294 77.7044 13.5849 77.8026 13.5405C78.0794 13.416 78.3384 13.416 78.4902 13.7361C78.6598 14.0917 78.383 14.2073 78.1509 14.3051C76.6239 14.9541 75.1148 15.692 73.5522 16.2077C71.4448 16.8923 69.2928 17.4079 67.1497 17.9947C66.355 18.2081 66.2925 18.3325 66.5247 19.1238C67.4712 22.3867 68.1498 25.7118 68.3731 29.1169C68.4177 29.7659 68.5338 30.2816 69.266 30.4327C69.4267 30.4683 69.5964 30.7972 69.6411 31.0284C69.7036 31.3485 69.6589 31.6952 69.6678 32.033C69.7036 32.9843 69.9893 33.2333 70.8822 33.1177C71.0966 33.091 71.3198 33.0021 71.5162 33.0466C71.6859 33.091 71.8198 33.2777 71.9806 33.4022C71.8377 33.5356 71.7127 33.7578 71.5609 33.7845C71.2126 33.8467 70.8465 33.8201 70.4894 33.8112C69.9893 33.7934 69.7571 34.0334 69.7839 34.5491C69.8107 35.1448 69.8286 35.7405 69.8464 36.3361C69.8643 36.9496 69.8821 37.5719 69.9 38.1854C69.9089 38.6121 69.7571 38.7899 69.3017 38.6744C68.6588 38.5143 68.382 38.701 68.3195 39.4034C68.007 42.6307 67.3551 45.7869 66.4622 48.8897C66.3014 49.4321 66.4264 49.5832 66.9979 49.7521C69.7125 50.5523 72.4271 51.3347 75.1327 52.1704C76.0435 52.4549 76.9186 52.8639 77.7937 53.2373C77.9365 53.2995 78.1419 53.6018 78.1151 53.6373C77.9812 53.824 77.7937 53.993 77.5883 54.1174C77.5169 54.1619 77.3472 54.0819 77.24 54.0196C74.9273 52.6149 72.3467 51.9748 69.8107 51.2458C68.8463 50.9701 67.8552 50.7479 66.8818 50.5078C66.096 50.3122 65.9175 50.4189 65.6049 51.1924C65.0066 52.6949 64.5512 54.2775 63.7833 55.6733C62.4975 58.0027 61.0241 60.2164 59.5954 62.4569C59.1846 63.097 59.1578 63.1503 59.8365 63.4437C60.1579 63.6038 60.5955 63.7816 61.1134 63.995ZM58.1309 62.8214C58.3453 62.6258 58.6399 62.4213 58.8542 62.1546C61.5152 58.8028 63.3726 54.9798 64.8459 50.9435C65.0692 50.33 64.9709 50.1166 64.3548 50.0011C63.1136 49.7699 61.8724 49.5832 60.6401 49.352C59.9168 49.2098 59.3632 49.3343 58.7471 49.8944C56.2379 52.1882 53.4698 54.0285 50.148 54.7842C49.4783 54.9354 49.1122 55.4155 48.9872 56.1001C48.7728 57.2381 48.5496 58.3672 48.3353 59.5052C48.1835 60.2876 48.2639 60.4209 49.0318 60.5276C51.9607 60.9366 54.836 61.5856 57.6041 62.6791C57.7202 62.7325 57.8631 62.7503 58.1309 62.8214ZM67.5783 38.6744C67.4444 38.541 67.2747 38.2476 67.0426 38.1854C66.4354 38.0165 65.8103 37.9453 65.1852 37.8475C64.8548 37.7942 64.6227 37.9542 64.5423 38.2921C64.4798 38.5232 64.4352 38.7633 64.3905 39.0033C63.944 41.4305 63.1672 43.7243 61.8545 45.7958C61.3813 46.5426 60.8812 47.2716 60.3901 48.0096C60.0954 48.4452 60.1401 48.5963 60.6312 48.6852C61.9528 48.9431 63.2833 49.1742 64.6048 49.4232C65.0692 49.5121 65.3549 49.3343 65.4888 48.8453C65.6228 48.3652 65.7924 47.8851 65.9532 47.4139C66.9086 44.64 67.1051 41.7239 67.5783 38.6744ZM41.7096 57.4248C41.6739 57.4248 41.6293 57.4248 41.5935 57.4248C41.5935 56.9358 41.5935 56.4557 41.5935 55.9667C41.6025 55.0154 41.6025 55.0243 40.7184 54.722C38.7182 54.0374 36.727 53.3351 34.9589 52.0993C34.7982 51.9837 34.5928 51.9392 34.4053 51.8592C34.3607 52.1082 34.2624 52.3571 34.2892 52.5882C34.4232 53.5484 34.6018 54.4997 34.7625 55.4599C34.9857 56.838 35.209 58.2249 35.4411 59.603C35.5036 59.9675 35.5751 60.2964 36.0662 60.2609C37.736 60.1364 39.3969 60.0119 41.0667 59.9142C41.5221 59.8875 41.7096 59.6563 41.7096 59.2118C41.7096 58.625 41.7096 58.0293 41.7096 57.4248ZM45.0493 60.0297C45.6743 60.0742 46.3083 60.0831 46.9334 60.1542C47.4781 60.2164 47.737 59.9675 47.8353 59.4429C48.0406 58.3049 48.2817 57.1758 48.4603 56.0378C48.5853 55.2732 48.4335 55.1932 47.6924 55.2021C46.1565 55.2288 44.6117 55.211 43.0758 55.1665C42.4508 55.1488 42.2454 55.2466 42.2186 55.9134C42.174 57.0336 42.1918 58.1538 42.174 59.274C42.165 59.7274 42.3793 59.9053 42.799 59.923C43.5402 59.9497 44.2902 59.9942 45.0493 60.0297Z" fill="white"/>
<path d="M26.5116 18.7237C26.5116 16.9901 26.5116 15.2475 26.5116 13.5138C26.5116 12.767 26.6545 12.6336 27.3778 12.6603C28.878 12.7136 28.9226 12.7403 28.9047 14.3051C28.8869 16.0832 28.8244 17.8525 28.7976 19.6306C28.7976 19.8528 28.8958 20.0662 28.9494 20.2885C29.1548 20.1729 29.4048 20.1018 29.5477 19.9329C33.3606 15.2386 38.2718 13.0693 44.1206 13.3893C52.4607 13.8428 58.3989 19.9506 60.4169 26.8231C60.8723 28.379 60.8902 28.3434 62.4618 28.4857C63.3726 28.5657 64.2745 28.7346 65.1674 28.9213C65.7121 29.028 66.0246 29.4459 66.1407 30.006C66.2657 30.6017 65.98 30.9128 65.3996 30.8061C64.2298 30.5928 63.069 30.3705 61.8992 30.1482C61.3277 30.0415 61.1938 30.1571 61.167 30.7617C61.0866 32.202 61.1938 32.282 62.5868 32.3798C63.5155 32.4509 64.4352 32.6465 65.346 32.8332C65.8818 32.9488 66.2657 33.7667 66.0871 34.3091C65.98 34.6469 65.7478 34.6914 65.4442 34.6291C64.3013 34.398 63.1493 34.1668 62.0064 33.9534C61.3813 33.829 61.1313 34.0246 61.0777 34.6825C60.7116 39.5634 58.5864 43.5731 55.1485 46.756C49.5319 51.957 43.1026 52.9528 36.1287 50.1789C33.4052 49.0942 31.1728 47.2627 29.3334 44.9156C29.1816 44.7289 28.9137 44.64 28.6994 44.4978C28.6101 44.7467 28.4493 44.9956 28.4493 45.2446C28.4583 47.165 28.5029 49.0942 28.5386 51.0146C28.5565 51.8948 28.4404 52.0193 27.5921 52.0281C27.4492 52.0281 27.3064 52.0281 27.1635 52.0192C26.5206 51.9837 26.3777 51.8326 26.3331 51.1835C26.3241 50.9968 26.3241 50.8101 26.3241 50.6234C26.3152 47.4139 26.3063 44.1955 26.2973 40.9859C26.2973 39.9991 26.4313 39.8657 27.3867 39.8568C28.3958 39.8479 28.9851 40.4614 29.4762 41.2882C30.0299 42.204 30.5478 43.173 31.2532 43.9465C35.7001 48.8097 41.1381 50.5256 47.3531 48.7564C53.5234 46.996 57.2112 42.5685 58.8185 36.1939C58.9436 35.7049 59.0507 35.2159 59.1489 34.718C59.3007 33.9445 59.0775 33.6156 58.3274 33.6956C56.0236 33.9268 53.7109 34.1312 51.4249 34.5047C48.5853 34.967 45.7993 35.7405 42.9062 35.8116C40.022 35.8827 37.1645 35.5715 34.316 35.1715C33.6731 35.0825 33.2445 34.3713 33.4052 33.7134C33.5034 33.3044 33.7624 33.1888 34.1374 33.2511C34.9411 33.3666 35.7358 33.5089 36.5395 33.5978C41.0399 34.0868 45.5225 34.2557 49.9694 33.0199C52.6661 32.2642 55.4611 32.0953 58.256 32.1131C58.6757 32.1131 59.2293 32.2642 59.265 31.5352C59.3007 30.575 58.9078 30.0149 58.1935 29.9882C55.6039 29.8993 53.068 30.2638 50.5588 30.8684C45.7636 32.0153 40.9328 32.3176 36.0573 31.5885C35.4679 31.4996 34.8875 31.4196 34.2982 31.3218C33.6552 31.2151 33.3695 30.895 33.3873 30.2905C33.4052 29.5348 33.6284 29.3303 34.3607 29.4459C37.6646 29.9971 40.9953 30.3616 44.3438 30.086C46.1655 29.9349 47.9692 29.5792 49.764 29.188C52.3089 28.6368 54.8538 28.2456 57.4523 28.2723C57.6309 28.2723 57.8095 28.2723 57.9881 28.2634C58.5417 28.2367 58.6489 28.1034 58.4703 27.5788C57.8006 25.614 57.0326 23.7025 55.7736 22.0577C48.0585 12.038 34.3964 14.3406 29.2441 24.0315C28.8422 24.7872 27.7439 25.2139 26.976 24.885C26.8152 24.8138 26.6724 24.5827 26.6188 24.3871C26.5474 24.1648 26.5741 23.907 26.5741 23.6669C26.5741 22.0222 26.5741 20.3774 26.5741 18.7326C26.5384 18.7237 26.5295 18.7237 26.5116 18.7237Z" fill="white"/>
<path d="M53.7644 22.0044C53.1304 21.631 52.5054 21.2576 51.8625 20.893C51.5499 20.7152 51.2374 20.5196 50.8981 20.4041C50.4516 20.2529 50.1837 20.4752 50.2194 20.9553C50.3534 22.8134 50.4962 24.6805 50.6391 26.5386C50.6391 26.5564 50.648 26.5742 50.648 26.592C50.648 26.9742 50.7641 27.4899 50.2551 27.5344C49.7015 27.5877 49.7908 27.0632 49.773 26.672C49.6569 24.716 49.5497 22.7601 49.4158 20.8041C49.389 20.3507 49.1568 20.0929 48.6746 20.004C46.7637 19.6572 44.8885 19.7728 43.0044 20.2174C42.4686 20.3418 42.2543 20.5641 42.2722 21.1509C42.3347 23.3735 42.3526 25.5962 42.3883 27.81C42.3883 28.0145 42.4061 28.2545 42.3168 28.4056C42.2365 28.5479 42.0132 28.6635 41.8525 28.6635C41.7364 28.6635 41.5846 28.4679 41.5221 28.3167C41.4596 28.1745 41.4953 27.9878 41.4953 27.8189C41.4953 25.6851 41.5043 23.5602 41.5043 21.4265C41.5043 20.6263 41.3435 20.4396 40.5845 20.5196C40.1113 20.5641 39.6112 20.6619 39.1826 20.8753C37.4145 21.791 35.8072 22.929 34.4589 24.4493C33.7624 25.2317 33.3427 26.0852 33.4231 27.1698C33.4588 27.6677 33.3248 27.9167 32.7801 27.7744C32.6373 27.7388 32.3515 27.8722 32.2712 28.0145C32.0301 28.4145 31.7265 28.5746 31.2889 28.5746C30.262 28.5657 29.2441 28.5657 28.2172 28.5746C27.7707 28.5746 27.5475 28.3968 27.5653 27.9078C27.5832 27.5166 27.5653 27.1254 27.5564 26.7342C27.5564 26.2897 27.7528 26.0318 28.1904 26.1474C29.1726 26.4141 29.7173 25.8718 30.137 25.0716C31.28 22.8668 32.7534 20.9553 34.7982 19.5861C40.7542 15.612 47.9246 16.1099 53.3983 21.2398C53.5858 21.4176 53.7198 21.6487 53.8805 21.8443C53.8359 21.9155 53.8002 21.9599 53.7644 22.0044Z" fill="white"/>
<path d="M75.7131 43.1019C74.8113 43.1019 73.9183 43.0841 73.0164 43.1108C72.5164 43.1197 72.2842 42.9152 72.3021 42.3818C72.3199 41.955 72.3021 41.5194 72.311 41.0926C72.3199 40.7281 72.4985 40.5414 72.8557 40.5592C73.1772 40.5681 73.454 40.6125 73.5254 41.0393C73.6683 41.8839 73.7308 41.9195 74.5255 41.9106C75.5167 41.9017 76.4989 41.9106 77.4901 41.9017C78.142 41.8928 78.3027 41.7417 78.3027 41.0837C78.3116 39.9635 78.3027 38.8433 78.3116 37.7231C78.3116 37.2608 78.1062 37.0118 77.6687 37.0029C77.2044 36.994 76.7311 36.994 76.2757 37.0385C75.2845 37.1363 74.3916 36.8962 73.579 36.2917C72.8736 35.7582 72.6325 35.0381 72.6414 34.149C72.6682 32.8065 72.6325 31.464 72.6414 30.1216C72.6414 29.7215 72.5074 29.4903 72.0878 29.4725C71.677 29.4548 71.4716 29.2147 71.4895 28.7791C71.5073 28.3256 71.7574 28.1567 72.1592 28.1656C72.82 28.1745 73.4897 28.1745 74.1505 28.1834C74.4719 28.1834 74.713 28.3079 74.7487 28.6813C74.7845 29.0547 74.713 29.3747 74.3023 29.4548C73.8558 29.5437 73.7308 29.8371 73.7397 30.2638C73.7486 31.5174 73.7308 32.771 73.7486 34.0157C73.7665 35.0203 74.2666 35.6515 75.2309 35.7671C76.0435 35.8649 76.8829 35.8294 77.7044 35.8294C78.0884 35.8294 78.3027 35.5715 78.3027 35.1803C78.3116 33.4644 78.3116 31.7397 78.3027 30.0238C78.3027 29.6059 78.0973 29.357 77.6687 29.3659C77.249 29.3747 77.0168 29.1703 77.0436 28.7257C77.0704 28.2723 77.3919 28.2812 77.7133 28.2812C79.3296 28.2812 80.9458 28.2812 82.5621 28.2812C82.8924 28.2812 83.2228 28.2367 83.2496 28.7524C83.2764 29.2147 83.1068 29.3836 82.6603 29.3836C82.2227 29.3836 82.1067 29.7126 82.1067 30.1216C82.1156 32.5487 82.1245 34.9759 82.1245 37.403C82.1245 39.1723 81.6066 40.7459 80.4368 42.0617C79.7403 42.853 78.901 43.2442 77.8473 43.1553C77.1597 43.0575 76.4364 43.1019 75.7131 43.1019Z" fill="white"/>
<path d="M4.92013 35.616C4.92013 33.9179 4.92013 32.2198 4.92013 30.5128C4.92013 29.6326 4.86655 29.5881 4.05397 29.3303C3.92896 29.2947 3.77716 29.0369 3.78609 28.8947C3.80394 28.6724 3.89324 28.3701 4.05397 28.2634C4.24149 28.1301 4.53616 28.1389 4.78619 28.1389C6.79532 28.1656 8.81339 28.1923 10.8225 28.2545C13.6353 28.3434 15.6266 31.4285 14.564 34.1401C13.8943 35.8383 12.4745 36.5851 10.8136 36.8607C10.3403 36.9407 9.84921 36.9051 9.35808 36.9051C8.92947 36.9051 8.74195 37.1096 8.74195 37.5542C8.75088 38.7455 8.75981 39.9457 8.73302 41.1371C8.72409 41.6972 8.95626 41.9195 9.4831 41.875C9.88492 41.8395 10.2064 41.9195 10.1975 42.4529C10.1975 42.8619 10.0367 43.0841 9.62597 43.0841C7.849 43.0841 6.07203 43.093 4.28614 43.093C3.9111 43.093 3.72358 42.8974 3.70572 42.5151C3.68786 42.1417 3.80394 41.8839 4.2147 41.8839C4.80405 41.8839 4.92013 41.4927 4.92013 40.9859C4.92013 39.2078 4.92013 37.4119 4.92013 35.616ZM8.64373 32.442C8.61694 32.442 8.59015 32.442 8.56336 32.442C8.60801 33.3133 8.64373 34.1935 8.6973 35.0648C8.71516 35.4204 8.82232 35.7582 9.23307 35.7849C11.1708 35.9272 12.8406 35.2693 13.7871 33.3044C14.0193 32.8243 14.0014 32.3442 13.796 31.8464C13.0013 29.9882 11.269 29.0191 9.30451 29.3481C8.85803 29.4192 8.6348 29.6592 8.64373 30.1305C8.64373 30.9128 8.64373 31.6774 8.64373 32.442Z" fill="white"/>
<path d="M46.728 47.3339C45.4868 48.3118 40.5667 48.2407 39.2183 47.2183C39.8434 47.2183 40.3256 47.1916 40.8077 47.2272C41.3346 47.2716 41.5132 47.0316 41.5042 46.5159C41.4864 44.4444 41.4953 42.3729 41.4864 40.3014C41.4864 39.5901 41.406 39.5012 40.7363 39.4123C38.9593 39.1722 37.1734 38.9411 35.3965 38.701C34.6643 38.6032 34.5928 38.5143 34.5839 37.7409C34.5839 37.5897 34.5839 37.4386 34.5839 37.2963C34.5928 36.6295 34.7089 36.5584 35.325 36.6562C39.8076 37.3408 44.2902 37.5186 48.7639 36.5228C51.4338 35.9272 54.1127 35.3759 56.8451 35.2337C57.5327 35.1981 57.6666 35.3137 57.4702 36.025C57.0058 37.6875 57.3987 37.7409 55.3092 38.0787C54.0502 38.2832 52.8001 38.5232 51.541 38.7544C50.8624 38.8789 50.657 39.1189 50.6302 39.839C50.5498 41.6705 50.4962 43.4931 50.3891 45.3246C50.3712 45.618 50.1748 45.9291 49.9962 46.187C49.9337 46.2848 49.6837 46.3381 49.5676 46.2848C49.4783 46.2492 49.4426 46.0003 49.4515 45.858C49.5765 43.9821 49.7194 42.0973 49.8533 40.2213C49.8623 40.1058 49.8712 39.9991 49.8712 39.8835C49.898 39.1723 49.764 39.11 49.0943 39.1723C47.237 39.3234 45.3796 39.4479 43.5134 39.5368C42.4418 39.5901 42.29 39.759 42.3168 40.8704C42.3615 42.7196 42.3704 44.5689 42.3793 46.4092C42.3883 47.1561 42.4776 47.2539 43.183 47.245C44.0849 47.2361 44.9778 47.2272 45.8797 47.2361C46.1119 47.2183 46.353 47.2805 46.728 47.3339Z" fill="white"/>
<path d="M20.4039 35.6693C20.4039 37.403 20.4039 39.1456 20.4039 40.8793C20.4039 41.6527 20.4753 41.7505 21.1897 41.875C21.5736 41.9461 21.7701 42.1062 21.7344 42.5329C21.6987 42.9597 21.4754 43.1019 21.0915 43.093C19.5824 43.0841 18.0733 43.0841 16.5642 43.093C16.216 43.093 15.9034 43.0308 15.8141 42.6129C15.7248 42.1862 15.9659 41.9906 16.3053 41.8839C16.7339 41.7417 16.8053 41.3949 16.7964 40.9948C16.7874 39.759 16.7785 38.5321 16.7874 37.2963C16.7874 35.0381 16.7964 32.7799 16.8053 30.5216C16.8053 29.9526 16.7071 29.4992 16.0999 29.2858C15.9659 29.2414 15.8231 28.9391 15.832 28.7613C15.8409 28.5835 16.0016 28.3256 16.1534 28.2634C16.4124 28.1567 16.716 28.1389 16.9928 28.1389C19.5467 28.13 22.0916 28.13 24.6454 28.1389C25.449 28.1389 25.5741 28.299 25.5294 29.1347C25.4937 29.7837 25.4937 30.4416 25.4937 31.0906C25.4937 31.5352 25.3508 31.8108 24.8776 31.8019C24.4132 31.793 24.2525 31.5263 24.2793 31.0729C24.2971 30.6817 24.2882 30.2905 24.2882 29.8993C24.2882 29.5614 24.1186 29.3658 23.7971 29.357C22.9041 29.3481 22.0023 29.3303 21.1093 29.357C20.5557 29.3747 20.4039 29.7748 20.4039 30.2816C20.4128 32.0864 20.4039 33.8823 20.4039 35.6693Z" fill="white"/>
<path d="M26.8153 32.9666C28.3779 32.9666 29.9406 32.9666 31.5032 32.9666C31.6461 32.9666 31.8158 32.931 31.9229 33.0021C32.0658 33.0999 32.2533 33.2688 32.2622 33.42C32.2712 33.5711 32.1104 33.7756 31.9676 33.8734C31.8515 33.9534 31.655 33.9268 31.4943 33.9268C28.3511 33.9268 25.2169 33.9268 22.0737 33.9268C21.9844 33.9268 21.8594 33.9623 21.8147 33.909C21.6451 33.7578 21.5111 33.5711 21.3593 33.4022C21.5111 33.2511 21.654 33.0021 21.8237 32.9843C22.2612 32.9221 22.7166 32.9666 23.1631 32.9666C24.3864 32.9666 25.6008 32.9666 26.8242 32.9666C26.8153 32.9666 26.8153 32.9666 26.8153 32.9666Z" fill="white"/>
<path d="M33.5391 44.3822C33.2266 44.1066 32.9944 43.9465 32.8159 43.7332C32.2533 43.0841 31.6907 42.4262 31.1639 41.7416C31.021 41.5461 31.021 41.2349 30.9585 40.9682C31.2443 41.0393 31.6104 41.0215 31.8068 41.1993C32.0926 41.4483 32.2533 41.8483 32.4676 42.1773C32.5301 42.1684 32.5926 42.1595 32.6551 42.1506C32.6551 41.6794 32.673 41.2171 32.6551 40.7459C32.5926 39.4834 32.5033 38.2121 32.4319 36.9496C32.414 36.5939 32.4408 36.2294 32.8962 36.2294C33.307 36.2383 33.3516 36.5851 33.3606 36.914C33.4409 39.2434 33.5124 41.5727 33.5927 43.9021C33.5838 44.0177 33.5659 44.1066 33.5391 44.3822Z" fill="white"/>
<path d="M58.9703 20.1107C59.1757 20.2796 59.4347 20.4041 59.5865 20.6175C60.3008 21.5954 61.0152 22.5823 61.676 23.6047C62.1939 24.4138 62.6314 25.2673 63.0779 26.1208C63.2208 26.3964 63.569 26.7253 63.1672 27.0454C62.8904 27.2677 62.0778 27.081 61.8814 26.7787C61.801 26.6542 61.7385 26.5209 61.6938 26.3786C61.1402 24.4227 60.1669 22.6801 59.1489 20.9642C59.015 20.7419 58.9168 20.5019 58.8096 20.2618C58.8632 20.2085 58.9168 20.1551 58.9703 20.1107Z" fill="white"/>
<path d="M29.9495 16.1721C29.9852 15.5498 30.012 14.8563 30.0924 14.1717C30.1102 14.0206 30.3156 13.7983 30.4674 13.7716C30.8335 13.7094 31.2175 13.7094 31.5925 13.7272C31.8961 13.745 32.2712 13.6294 32.414 14.0739C32.5658 14.554 32.6283 15.0786 32.2444 15.4431C31.664 16.0032 31.03 16.4922 30.4049 16.99C30.1281 17.2123 29.9763 17.0612 29.9495 16.7411C29.9406 16.5722 29.9495 16.4033 29.9495 16.1721Z" fill="white"/>
<path d="M15.9838 38.2654C15.9838 39.0122 16.0106 39.759 15.9659 40.5059C15.957 40.7103 15.7605 40.9059 15.6534 41.1015C15.5016 40.9326 15.2426 40.7726 15.2248 40.577C15.0462 39.0211 14.9212 37.4564 14.7694 35.9005C14.7337 35.4826 14.948 35.3226 15.2962 35.2781C15.6623 35.2337 15.8231 35.4382 15.8231 35.8027C15.8231 36.6206 15.8231 37.4475 15.8231 38.2654C15.8766 38.2654 15.9302 38.2654 15.9838 38.2654Z" fill="white"/>
<path d="M2.04483 33.9357C1.52692 33.9357 1.00008 33.9712 0.491103 33.9179C0.303584 33.9001 -0.0178776 33.6067 -1.85908e-05 33.5178C0.0624878 33.2777 0.267866 32.9043 0.437526 32.8954C1.52692 32.8421 2.61632 32.8421 3.70572 32.8866C3.86645 32.8954 4.08969 33.2511 4.12541 33.4733C4.14326 33.5978 3.83966 33.8823 3.66107 33.909C3.13423 33.9712 2.58953 33.9268 2.05376 33.9268C2.04483 33.9268 2.04483 33.9357 2.04483 33.9357Z" fill="white"/>
<path d="M84.9819 32.9754C85.4641 32.9754 85.9552 32.9754 86.4374 32.9754C86.741 32.9754 86.9911 33.0466 87 33.42C87.0089 33.8112 86.7678 33.9267 86.4285 33.9267C85.4195 33.9267 84.4194 33.9445 83.4103 33.9001C83.2228 33.8912 82.9282 33.6245 82.8924 33.4289C82.821 33.091 83.1157 32.9666 83.4193 32.9666C83.9372 32.9666 84.464 32.9666 84.9819 32.9666C84.9819 32.9666 84.9819 32.9754 84.9819 32.9754Z" fill="white"/>
<path d="M76.1864 32.9666C76.4721 32.9666 76.7757 32.9132 77.0347 32.9843C77.2222 33.0377 77.3562 33.2688 77.5169 33.42C77.3651 33.5889 77.2311 33.8823 77.0704 33.9001C76.4543 33.9623 75.8203 33.9356 75.2042 33.9356C74.8648 33.9356 74.6505 33.7578 74.6594 33.3933C74.6684 33.011 74.9452 32.9666 75.2309 32.9666C75.5435 32.9577 75.8649 32.9666 76.1864 32.9666Z" fill="white"/>
<path d="M11.0458 33.8912C10.7243 33.8912 10.3939 33.9268 10.0814 33.8734C9.90278 33.8378 9.65276 33.6867 9.59918 33.5356C9.50096 33.26 9.60811 32.931 9.95636 32.9132C10.7779 32.8777 11.5994 32.8688 12.4209 32.9043C12.5102 32.9043 12.6977 33.2244 12.662 33.3577C12.6173 33.5445 12.4388 33.8201 12.287 33.8467C11.8851 33.9179 11.4654 33.8734 11.0547 33.8734C11.0458 33.8734 11.0458 33.8823 11.0458 33.8912Z" fill="white"/>
</g>
<defs>
<clipPath id="clip0_54_65">
<rect width="87" height="67" fill="white"/>
</clipPath>
</defs>
</svg>
